PathFileType	4	(X/Y/Z)	Patient4_TMGait_0pt3_02_right_06.trc.trc
DataRate	CameraRate	NumFrames	NumMarkers	Units	OrigDataRate	OrigDataStartFrame	OrigNumFrames
47.945205479452	47.945205479452	4	33	mm	47.945205479452	106	       141
Frame#	Time	Sacral			L.Shoulder			Chest			R.Shoulder			Neck			R.ASIS			L.ASIS			R.Thigh.Superior			R.Thigh.Lateral			R.Thigh.Inferior			R.Patella			L.Thigh.Superior			L.Thigh.Lateral			L.Thigh.Inferior			L.Patella			L.Shank.Superior			L.Shank.Lateral			L.Shank.Inferior			R.Shank.Superior			R.Shank.Lateral			R.Shank.Inferior			R.Heel			R.Midfoot.Superior			R.Midfoot.Lateral			R.Toe			L.Heel			L.Midfoot.Lateral			L.Midfoot.Superior			L.Toe			L.Elbow			L.Wrist			R.Elbow			R.Wrist			
		X1	Y1	Z1	X2	Y2	Z2	X3	Y3	Z3	X4	Y4	Z4	X5	Y5	Z5	X6	Y6	Z6	X7	Y7	Z7	X8	Y8	Z8	X9	Y9	Z9	X10	Y10	Z10	X11	Y11	Z11	X12	Y12	Z12	X13	Y13	Z13	X14	Y14	Z14	X15	Y15	Z15	X16	Y16	Z16	X17	Y17	Z17	X18	Y18	Z18	X19	Y19	Z19	X20	Y20	Z20	X21	Y21	Z21	X22	Y22	Z22	X23	Y23	Z23	X24	Y24	Z24	X25	Y25	Z25	X26	Y26	Z26	X27	Y27	Z27	X28	Y28	Z28	X29	Y29	Z29	X30	Y30	Z30	X31	Y31	Z31	X32	Y32	Z32	X33	Y33	Z33	

106	12.580000000000	716.783842532066	981.778290454125	443.187579868988	908.998612354513	1420.437640337056	288.455147222263	994.592650967221	1345.355319621774	456.362901324781	894.962350499290	1409.936224665732	624.507231536458	879.294417628843	1476.883733539807	447.848384173543	939.300128190393	924.395171949750	578.661920626445	948.969959133919	945.036630241408	304.688971394128	1013.974489030685	740.003393208665	554.037780201441	956.824840129261	621.875460064179	618.270844418878	1046.299286644123	574.921975542205	541.669832783885	1049.546038218492	459.508007863626	567.267631668527	1010.668493268651	739.976391662993	357.526373769117	940.474977006989	608.900041322380	305.123824364691	1022.688242937592	544.218120136253	386.921129500616	1026.935926016198	468.496212315649	401.035826445464	983.876243527870	394.132548694909	393.824347201302	880.845015502089	293.913798117868	338.861424904771	899.849752273731	180.372321517144	417.293613791413	961.253732497136	396.204644530508	572.245735484434	827.787655427790	378.307099304747	617.602848363432	805.235344423691	267.690866443646	575.769231631715	604.212507605948	234.832474188198	520.756920754386	751.446597164696	152.094577575252	595.827819907101	638.865361310397	173.512576565829	607.297193865988	788.784358336179	32.361887171766	639.018572176151	745.915331728031	39.106701342769	450.614570368375	823.929044257661	36.514497445683	374.243009037942	907.494041862783	94.753625794106	407.330883224010	1035.893840193385	39.476998858574	382.042819742350	963.822433775822	1080.980648533421	147.218580326993	1101.240960109992	859.382789955538	162.785151063806	861.506631253938	1054.216668842324	721.849402844587	933.542674166977	805.730689375749	753.961662343675	
107	12.600857142857	715.317283150499	981.691565420924	440.038331577012	911.142413226132	1421.903769495822	290.080090454397	992.849035069812	1345.903913055160	459.382369216020	889.054097744458	1408.966871564488	625.706651398056	877.818119862716	1477.171760831799	449.352201535666	936.607515667984	925.316475132820	578.403721501909	949.160466120676	945.399023134647	304.511098882627	1015.606413058186	744.254768188234	552.057472569469	962.300138638964	624.808718088813	616.391629871840	1052.073138055164	580.015767011462	538.786349087618	1058.831190759496	464.789013775691	564.462092213525	1009.170007594341	738.848944878333	357.143985863107	937.879690217380	608.418610173604	304.625484863430	1018.831734284327	543.149632548903	387.067388082918	1022.413315157516	467.695636488366	401.496430952668	979.053501747259	393.523297258332	393.920194792980	875.847669646164	293.626013612052	338.630378648220	894.044243983643	180.069813789006	417.304854453132	972.512791278558	399.268791087062	570.384916678603	840.050804717255	377.352260943925	616.325616969190	821.062715134290	266.028144925424	574.840692805289	620.946812857207	224.146715560249	520.882912963615	772.150388588697	150.343975821759	595.425513937372	659.212158770299	166.083249707150	607.852230911248	815.618232580095	33.472739052810	639.672053821512	739.581821390372	39.107083136727	450.519256565694	817.647074564122	36.472311964388	374.164998593244	901.217854937318	94.672796663924	407.303755026050	1029.608246295287	39.448333814723	382.012452249136	976.940070119615	1086.730755497134	144.892297710982	1128.881703163215	874.642438661556	163.290614893955	836.423897893320	1054.774714668901	718.506285023473	890.529354248434	801.474968462092	748.053838589477	
108	12.621714285714	713.906409432929	982.533332150796	437.093072157095	913.492774987750	1424.044017477405	291.989913606826	991.145956858777	1347.181238215399	462.676836942517	883.165878757614	1409.022183014501	626.916224254839	876.399179646145	1478.174627304908	450.963859929272	933.712201894557	926.922091337817	578.539198668342	949.298799845719	946.453726987892	304.833633368806	1016.274367836782	748.934178954981	550.478785854774	966.375289713710	628.365488705381	614.910861705178	1056.243257168646	585.499338193781	536.405578008794	1066.496059318877	470.877283764412	562.130314741546	1006.988321307807	738.018128923426	356.996196694732	934.188519138512	608.549373102718	304.115905252365	1013.623958015248	542.415606574577	387.081247011362	1016.360276586616	467.362011394613	401.724094790597	972.982146536204	393.467757745512	393.763812830876	869.923150635771	293.561378104879	338.231064566510	887.800859100584	180.064543128569	417.182250095542	982.893990536014	402.808597923138	569.061814529589	852.149084619486	375.491983661361	615.941880394221	837.853293037145	263.515436449942	574.675643076155	639.532677812767	210.383714963397	522.347372070947	795.190519178876	147.530782654681	595.700244301918	682.185991827239	156.179068495359	609.475763547776	846.168582616510	34.791422062990	640.588943085315	733.221422313568	39.103640373076	450.411177435458	811.340493864757	36.423982084903	374.078031451094	894.911282463170	94.631438536684	407.210349186675	1023.301807831603	39.446621695055	381.985926146805	989.685891612520	1093.713027947068	142.804735024109	1155.729103890498	892.277205417671	164.366827115502	811.895481582879	1057.480270655467	714.938873317343	849.134689201696	800.938907897955	741.742413096836	
109	12.642571428571	712.545337157866	984.222127315164	434.368686790814	916.027410409095	1426.764492527958	294.154006261195	989.495688513613	1349.093624125464	466.192580642316	877.391164665757	1410.045634511200	628.114614990655	875.055328361830	1479.813238019758	452.649673703304	930.599410604895	929.134939699361	579.058209300106	949.402133682497	948.138762693233	305.637370798415	1015.972921070630	753.866293555429	549.408641880092	968.946854260468	632.355843784847	613.931270739866	1058.786824142560	591.151806631618	534.709876726910	1072.443556962577	477.569165035498	560.450326559846	1004.137036369286	737.469709676798	357.130319235635	929.503607231600	609.250399160920	303.611780357806	1007.174094797571	542.007841019332	386.999489008596	1008.899444063017	467.462075171806	401.738157090641	965.767712345738	393.929610717839	393.378333827076	863.148011518772	293.710845142768	337.681925893572	881.154058917845	180.338776760848	416.941572503597	992.274517081722	406.725893665052	568.376817222531	864.025517736904	372.812050427427	616.465042772135	855.467311323170	260.360749638051	575.282223405178	660.110883067073	194.204437300498	524.985960662832	820.234714560794	143.932669207371	596.615748166808	707.622705346267	144.393715666345	612.019153594282	879.665195582021	36.484366980005	641.756927274024	726.840993641141	39.100934583307	450.288281873403	805.011165032364	36.371797725174	373.984778525273	888.578737596363	94.629390631261	407.057802472718	1016.976761220014	39.468886149102	381.964786554335	1002.092268951640	1101.743530123030	141.030424817838	1181.535178153721	912.033942661969	166.022382731372	788.290315113786	1062.159392334832	711.135106056537	809.888179365433	803.675450512596	735.200210482110	
